HIERARCHY
ROOT Hips
{
	OFFSET 0.000000 121.760803 0.000000
	CHANNELS 6 Xposition Yposition Zposition Xrotation Yrotation Zrotation 
	JOINT Spine
	{
		OFFSET 0.072000 7.257294 -0.789700
		CHANNELS 3 Xrotation Yrotation Zrotation
		JOINT Spine1
		{
			OFFSET 0.000000 12.508769 -0.658067
			CHANNELS 3 Xrotation Yrotation Zrotation
			JOINT Spine1_split
			{
				OFFSET 0.000000 12.508769 -0.658067
				CHANNELS 3 Xrotation Yrotation Zrotation
				JOINT Spine2
				{
					OFFSET 0.000000 12.508769 -0.658067
					CHANNELS 3 Xrotation Yrotation Zrotation
					JOINT Neck
					{
						OFFSET 0.000000 14.033295 7.520400
						CHANNELS 3 Xrotation Yrotation Zrotation
						JOINT Head
						{
							OFFSET 0.000000 8.198502 5.703100
							CHANNELS 3 Xrotation Yrotation Zrotation
							JOINT HeadTop_End
							{
								OFFSET 0.000000 17.760803 13.332701
								CHANNELS 3 Xrotation Yrotation Zrotation
								End Site
								{
									OFFSET 0.000000 0.000000 0.000000
								}
							}
						}
					}
					JOINT LeftShoulder
					{
						OFFSET 6.292450 5.785301 -0.669000
						CHANNELS 3 Xrotation Yrotation Zrotation
						JOINT LeftShoulder_split
						{
							OFFSET 6.292450 5.785301 -0.669000
							CHANNELS 3 Xrotation Yrotation Zrotation
							JOINT LeftArm
							{
								OFFSET 13.907140 -6.093903 1.965100
								CHANNELS 3 Xrotation Yrotation Zrotation
								JOINT LeftForeArm
								{
									OFFSET 34.140198 0.000000 0.000000
									CHANNELS 3 Xrotation Yrotation Zrotation
									JOINT LeftHand
									{
										OFFSET 40.960209 0.000000 0.000000
										CHANNELS 3 Xrotation Yrotation Zrotation
										JOINT LeftHandThumb1
										{
											OFFSET 10.006996 -7.170425 9.573125
											CHANNELS 3 Xrotation Yrotation Zrotation
											JOINT LeftHandThumb2
											{
												OFFSET 1.835007 -1.059448 1.059443
												CHANNELS 3 Xrotation Yrotation Zrotation
												JOINT LeftHandThumb3
												{
													OFFSET 2.112267 -1.219513 1.219518
													CHANNELS 3 Xrotation Yrotation Zrotation
													JOINT LeftHandThumb4
													{
														OFFSET 4.843811 -2.796570 2.796576
														CHANNELS 3 Xrotation Yrotation Zrotation
														End Site
														{
															OFFSET 0.000000 0.000000 0.000000
														}
													}
												}
											}
										}
										JOINT LeftHandIndex1
										{
											OFFSET 18.389847 -0.922348 4.596882
											CHANNELS 3 Xrotation Yrotation Zrotation
											JOINT LeftHandIndex2
											{
												OFFSET 4.711273 0.000000 0.000000
												CHANNELS 3 Xrotation Yrotation Zrotation
												JOINT LeftHandIndex3
												{
													OFFSET 2.886131 0.000000 0.000000
													CHANNELS 3 Xrotation Yrotation Zrotation
													JOINT LeftHandIndex4
													{
														OFFSET 6.145912 0.000000 0.000000
														CHANNELS 3 Xrotation Yrotation Zrotation
														End Site
														{
															OFFSET 0.000000 0.000000 0.000000
														}
													}
												}
											}
										}
										JOINT LeftHandMiddle1
										{
											OFFSET 18.013008 0.000000 0.000000
											CHANNELS 3 Xrotation Yrotation Zrotation
											JOINT LeftHandMiddle2
											{
												OFFSET 4.946693 0.000000 0.000000
												CHANNELS 3 Xrotation Yrotation Zrotation
												JOINT LeftHandMiddle3
												{
													OFFSET 3.342232 0.000000 0.000000
													CHANNELS 3 Xrotation Yrotation Zrotation
													JOINT LeftHandMiddle4
													{
														OFFSET 4.461754 0.000000 0.000000
														CHANNELS 3 Xrotation Yrotation Zrotation
														End Site
														{
															OFFSET 0.000000 0.000000 0.000000
														}
													}
												}
											}
										}
										JOINT LeftHandRing1
										{
											OFFSET 15.849892 -0.102921 -4.126150
											CHANNELS 3 Xrotation Yrotation Zrotation
											JOINT LeftHandRing2
											{
												OFFSET 3.527054 0.000000 0.000000
												CHANNELS 3 Xrotation Yrotation Zrotation
												JOINT LeftHandRing3
												{
													OFFSET 2.961098 0.000000 0.000000
													CHANNELS 3 Xrotation Yrotation Zrotation
													JOINT LeftHandRing4
													{
														OFFSET 4.927200 0.000000 0.000000
														CHANNELS 3 Xrotation Yrotation Zrotation
														End Site
														{
															OFFSET 0.000000 0.000000 0.000000
														}
													}
												}
											}
										}
										JOINT LeftHandPinky1
										{
											OFFSET 12.791824 -0.832031 -6.799156
											CHANNELS 3 Xrotation Yrotation Zrotation
											JOINT LeftHandPinky2
											{
												OFFSET 3.327133 0.000000 0.000000
												CHANNELS 3 Xrotation Yrotation Zrotation
												JOINT LeftHandPinky3
												{
													OFFSET 3.014900 0.000000 0.000000
													CHANNELS 3 Xrotation Yrotation Zrotation
													JOINT LeftHandPinky4
													{
														OFFSET 5.847786 0.000000 0.000000
														CHANNELS 3 Xrotation Yrotation Zrotation
														End Site
														{
															OFFSET 0.000000 0.000000 0.000000
														}
													}
												}
											}
										}
									}
								}
							}
						}
					}
					JOINT RightShoulder
					{
						OFFSET -6.292450 5.785301 -0.669000
						CHANNELS 3 Xrotation Yrotation Zrotation
						JOINT RightShoulder_split
						{
							OFFSET -6.292450 5.785301 -0.669000
							CHANNELS 3 Xrotation Yrotation Zrotation
							JOINT RightArm
							{
								OFFSET -13.907140 -6.093903 1.965100
								CHANNELS 3 Xrotation Yrotation Zrotation
								JOINT RightForeArm
								{
									OFFSET -34.140198 0.000000 0.000000
									CHANNELS 3 Xrotation Yrotation Zrotation
									JOINT RightHand
									{
										OFFSET -40.960209 0.000000 0.000000
										CHANNELS 3 Xrotation Yrotation Zrotation
										JOINT RightHandThumb1
										{
											OFFSET -10.007050 -7.170456 9.573117
											CHANNELS 3 Xrotation Yrotation Zrotation
											JOINT RightHandThumb2
											{
												OFFSET -1.835007 -1.059448 1.059443
												CHANNELS 3 Xrotation Yrotation Zrotation
												JOINT RightHandThumb3
												{
													OFFSET -2.112267 -1.219513 1.219518
													CHANNELS 3 Xrotation Yrotation Zrotation
													JOINT RightHandThumb4
													{
														OFFSET -4.843834 -2.796585 2.796590
														CHANNELS 3 Xrotation Yrotation Zrotation
														End Site
														{
															OFFSET 0.000000 0.000000 0.000000
														}
													}
												}
											}
										}
										JOINT RightHandIndex1
										{
											OFFSET -18.389870 -0.922424 4.596786
											CHANNELS 3 Xrotation Yrotation Zrotation
											JOINT RightHandIndex2
											{
												OFFSET -4.711273 0.000000 0.000000
												CHANNELS 3 Xrotation Yrotation Zrotation
												JOINT RightHandIndex3
												{
													OFFSET -2.886131 0.000000 0.000000
													CHANNELS 3 Xrotation Yrotation Zrotation
													JOINT RightHandIndex4
													{
														OFFSET -6.145920 0.000000 0.000000
														CHANNELS 3 Xrotation Yrotation Zrotation
														End Site
														{
															OFFSET 0.000000 0.000000 0.000000
														}
													}
												}
											}
										}
										JOINT RightHandMiddle1
										{
											OFFSET -18.013008 0.000000 0.000000
											CHANNELS 3 Xrotation Yrotation Zrotation
											JOINT RightHandMiddle2
											{
												OFFSET -4.946693 0.000000 0.000000
												CHANNELS 3 Xrotation Yrotation Zrotation
												JOINT RightHandMiddle3
												{
													OFFSET -3.342232 0.000000 0.000000
													CHANNELS 3 Xrotation Yrotation Zrotation
													JOINT RightHandMiddle4
													{
														OFFSET -4.461754 0.000000 0.000000
														CHANNELS 3 Xrotation Yrotation Zrotation
														End Site
														{
															OFFSET 0.000000 0.000000 0.000000
														}
													}
												}
											}
										}
										JOINT RightHandRing1
										{
											OFFSET -15.849876 -0.102936 -4.126237
											CHANNELS 3 Xrotation Yrotation Zrotation
											JOINT RightHandRing2
											{
												OFFSET -3.527054 0.000000 0.000000
												CHANNELS 3 Xrotation Yrotation Zrotation
												JOINT RightHandRing3
												{
													OFFSET -2.961098 0.000000 0.000000
													CHANNELS 3 Xrotation Yrotation Zrotation
													JOINT RightHandRing4
													{
														OFFSET -4.927200 0.000000 0.000000
														CHANNELS 3 Xrotation Yrotation Zrotation
														End Site
														{
															OFFSET 0.000000 0.000000 0.000000
														}
													}
												}
											}
										}
										JOINT RightHandPinky1
										{
											OFFSET -12.791786 -0.832077 -6.799222
											CHANNELS 3 Xrotation Yrotation Zrotation
											JOINT RightHandPinky2
											{
												OFFSET -3.327133 0.000000 0.000000
												CHANNELS 3 Xrotation Yrotation Zrotation
												JOINT RightHandPinky3
												{
													OFFSET -3.014900 0.000000 0.000000
													CHANNELS 3 Xrotation Yrotation Zrotation
													JOINT RightHandPinky4
													{
														OFFSET -5.847786 0.000000 0.000000
														CHANNELS 3 Xrotation Yrotation Zrotation
														End Site
														{
															OFFSET 0.000000 0.000000 0.000000
														}
													}
												}
											}
										}
									}
								}
							}
						}
					}
				}
			}
		}
	}
	JOINT LeftUpLeg
	{
		OFFSET 13.026900 -6.336304 -1.092800
		CHANNELS 3 Xrotation Yrotation Zrotation
		JOINT LeftLeg
		{
			OFFSET 0.524474 -46.096886 9.782700
			CHANNELS 3 Xrotation Yrotation Zrotation
			JOINT LeftFoot
			{
				OFFSET -0.524474 -53.427422 -12.948200
				CHANNELS 3 Xrotation Yrotation Zrotation
				JOINT LeftToeBase
				{
					OFFSET 0.192200 -14.009700 16.364100
					CHANNELS 3 Xrotation Yrotation Zrotation
					JOINT LeftToe_End
					{
						OFFSET -1.784700 -0.561700 9.474800
						CHANNELS 3 Xrotation Yrotation Zrotation
						End Site
						{
							OFFSET 0.000000 0.000000 0.000000
						}
					}
				}
			}
		}
	}
	JOINT RightUpLeg
	{
		OFFSET -12.883000 -6.336304 -1.092800
		CHANNELS 3 Xrotation Yrotation Zrotation
		JOINT RightLeg
		{
			OFFSET -0.524587 -46.096825 9.782800
			CHANNELS 3 Xrotation Yrotation Zrotation
			JOINT RightFoot
			{
				OFFSET 0.524587 -53.427383 -12.948300
				CHANNELS 3 Xrotation Yrotation Zrotation
				JOINT RightToeBase
				{
					OFFSET -0.192200 -14.009700 16.364100
					CHANNELS 3 Xrotation Yrotation Zrotation
					JOINT RightToe_End
					{
						OFFSET 1.784700 -0.561700 9.474800
						CHANNELS 3 Xrotation Yrotation Zrotation
						End Site
						{
							OFFSET 0.000000 0.000000 0.000000
						}
					}
				}
			}
		}
	}
}
MOTION
Frames: 4
Frame Time: 0.016667
5.219890 113.779480 113.628868 -171.505572 67.352161 177.794045 10.506281 -3.244585 -5.823390 5.905950 -0.746167 -0.137389 0.000000 0.000000 0.000000 5.913745 -0.679942 -0.131287 -10.724004 -0.020873 2.039219 -4.215061 13.545547 -3.367739 -0.000000 -0.000001 0.000000 4.565339 8.264151 -9.764211 0.000000 0.000000 0.000000 -7.251028 -13.343468 -59.256501 -0.000006 -11.301080 -0.000013 9.160503 -15.323027 -1.192306 -3.469767 3.607322 7.883177 9.703630 22.223518 2.891190 -5.879055 9.699142 15.674862 -0.000001 0.000002 0.000004 0.162357 3.429611 -10.498170 0.209650 1.554736 -15.358567 0.209648 1.554737 -15.358572 0.000000 0.000000 0.000000 0.362545 4.206377 -18.344215 0.474610 2.311790 -23.200233 0.474607 2.311792 -23.200240 0.000000 -0.000000 -0.000005 0.689026 4.991708 -26.673262 0.865734 3.066786 -31.521439 0.865732 3.066786 -31.521456 -0.000000 0.000000 -0.000001 0.902506 5.377891 -30.995357 1.110592 3.433632 -35.838170 1.110592 3.433628 -35.838153 -0.000000 0.000000 0.000001 1.424813 6.319848 17.460011 0.000000 0.000000 0.000000 -2.214349 -4.391941 64.929861 0.000026 27.167083 -0.000005 -23.146965 -17.077655 -15.152677 -1.986177 -5.435660 -3.761597 8.766469 -20.697683 -3.062068 -5.504772 -5.510973 -14.718521 0.000000 0.000003 -0.000002 2.057121 -6.108260 55.293564 5.419356 -4.594511 99.429393 3.163282 -4.411566 71.271255 0.000000 -0.000002 0.000000 2.592851 -6.426552 62.973422 4.946627 -4.648184 93.567315 3.098027 -4.388967 70.420575 -0.000000 0.000000 -0.000001 2.854989 -6.549357 66.538576 4.919145 -4.649817 93.228209 2.921293 -4.322231 68.093912 0.000000 0.000001 -0.000002 1.542110 -5.696824 47.168207 2.898961 -4.313208 67.797352 2.788744 -4.266698 66.323937 -0.000001 0.000001 0.000000 -26.341466 9.479156 6.472710 31.402888 4.407855 2.831364 -0.606666 1.204505 -13.932909 -1.861496 0.000007 0.000001 -0.000001 -0.000001 0.000000 -6.245370 -9.972094 -13.493466 27.220102 -8.869549 -2.776150 -16.741130 -5.355276 10.940968 -6.933669 -0.000016 0.000001 -0.000000 0.000000 0.000000 
5.377915 113.751076 113.088791 -172.154986 65.459140 178.535708 10.542713 -3.228515 -6.107646 5.937756 -0.731577 -0.053682 0.000000 0.000000 0.000000 5.944719 -0.659886 -0.046719 -10.723269 -0.058135 2.025080 -4.160083 14.345680 -3.272150 0.000000 0.000000 -0.000000 4.439877 8.094345 -9.464048 0.000000 0.000000 0.000000 -6.237179 -11.834781 -59.241687 0.000004 -11.844594 0.000010 9.598146 -13.812532 -2.183855 -3.469768 3.607323 7.883176 9.703633 22.223518 2.891195 -5.879055 9.699137 15.674859 0.000001 -0.000000 -0.000003 0.162356 3.429612 -10.498170 0.209650 1.554735 -15.358563 0.209648 1.554737 -15.358573 -0.000000 0.000000 -0.000000 0.362545 4.206377 -18.344216 0.474609 2.311790 -23.200233 0.474607 2.311793 -23.200245 0.000000 -0.000000 -0.000001 0.689026 4.991709 -26.673262 0.865734 3.066787 -31.521439 0.865732 3.066786 -31.521453 -0.000001 -0.000001 0.000001 0.902506 5.377892 -30.995361 1.110593 3.433632 -35.838166 1.110592 3.433628 -35.838153 0.000000 -0.000000 -0.000000 1.440124 6.247029 17.504255 0.000000 0.000000 0.000000 -2.407546 -5.275753 64.582512 0.000011 26.607740 -0.000008 -21.465300 -16.875345 -14.388041 -1.986176 -5.435659 -3.761595 8.766469 -20.697684 -3.062069 -5.504772 -5.510973 -14.718527 0.000004 0.000003 0.000004 2.057121 -6.108256 55.293571 5.419357 -4.594514 99.429400 3.163282 -4.411566 71.271255 0.000000 -0.000001 -0.000000 2.592851 -6.426549 62.973429 4.946628 -4.648185 93.567322 3.098025 -4.388965 70.420569 -0.000000 0.000000 0.000000 2.854990 -6.549355 66.538576 4.919146 -4.649815 93.228209 2.921294 -4.322232 68.093912 0.000001 0.000000 -0.000005 1.542111 -5.696822 47.168217 2.898961 -4.313206 67.797359 2.788742 -4.266698 66.323937 0.000001 0.000000 0.000001 -25.976985 9.285740 6.594316 30.195146 5.314079 3.089545 -0.899381 1.589278 -13.438888 -1.662279 0.000015 -0.000001 0.000000 -0.000001 0.000000 -5.564506 -10.475272 -13.589618 26.919755 -8.882810 -2.760698 -16.800189 -6.876088 11.149943 -6.963194 -0.000009 -0.000002 0.000000 -0.000000 0.000000 
5.544473 113.735641 112.476921 -172.645435 63.568584 179.119020 10.607836 -3.195694 -6.413096 5.956440 -0.710469 0.027102 0.000000 0.000000 0.000000 5.962348 -0.633107 0.034884 -10.724160 -0.096678 2.008867 -4.103968 15.186876 -3.159078 0.000000 -0.000001 -0.000000 4.315409 7.926122 -9.159261 0.000000 0.000000 0.000000 -5.366292 -10.439507 -59.331155 0.000002 -12.405883 0.000018 10.104740 -12.230451 -3.230669 -3.469768 3.607322 7.883182 9.703629 22.223518 2.891192 -5.879055 9.699141 15.674856 0.000002 -0.000005 0.000003 0.162356 3.429611 -10.498168 0.209650 1.554735 -15.358567 0.209648 1.554737 -15.358573 0.000001 -0.000000 -0.000002 0.362545 4.206376 -18.344215 0.474609 2.311790 -23.200233 0.474607 2.311792 -23.200242 -0.000000 0.000000 -0.000000 0.689025 4.991708 -26.673262 0.865733 3.066786 -31.521439 0.865732 3.066786 -31.521449 -0.000000 0.000000 0.000001 0.902505 5.377891 -30.995357 1.110592 3.433632 -35.838166 1.110593 3.433627 -35.838156 0.000000 -0.000000 -0.000000 1.452240 6.186892 17.530471 0.000000 0.000000 0.000000 -2.514460 -6.093105 64.276165 0.000014 26.010574 0.000002 -19.830682 -16.637567 -13.686414 -1.986177 -5.435659 -3.761595 8.766468 -20.697686 -3.062073 -5.504775 -5.510968 -14.718523 -0.000005 0.000003 0.000003 2.057121 -6.108259 55.293568 5.419358 -4.594514 99.429393 3.163282 -4.411569 71.271255 -0.000000 0.000000 -0.000003 2.592849 -6.426548 62.973429 4.946626 -4.648188 93.567315 3.098023 -4.388965 70.420569 -0.000001 -0.000002 -0.000000 2.854990 -6.549357 66.538583 4.919146 -4.649818 93.228216 2.921292 -4.322229 68.093906 -0.000001 -0.000001 -0.000002 1.542109 -5.696821 47.168214 2.898962 -4.313206 67.797359 2.788742 -4.266697 66.323937 -0.000000 -0.000000 -0.000000 -25.467571 9.037744 6.639594 28.871309 6.011473 3.305066 -1.049336 2.090179 -12.991494 -1.559810 -0.000010 -0.000000 -0.000000 -0.000003 -0.000000 -4.780453 -11.000492 -13.685471 26.525817 -8.912866 -2.740017 -16.822860 -8.373065 11.404762 -6.986894 0.000036 0.000003 0.000000 0.000000 0.000000 
5.718008 113.733238 111.790298 -173.029046 61.689859 179.591314 10.686373 -3.148730 -6.728433 5.960719 -0.683473 0.100003 0.000000 0.000000 0.000000 5.965373 -0.600657 0.108450 -10.728264 -0.136312 1.990616 -4.053719 16.057583 -3.028831 0.000000 -0.000001 -0.000000 4.191115 7.756944 -8.850424 0.000000 0.000000 0.000000 -4.627763 -9.151182 -59.511732 0.000004 -12.942795 0.000011 10.682204 -10.597891 -4.326585 -3.469768 3.607323 7.883176 9.703629 22.223518 2.891192 -5.879056 9.699138 15.674862 -0.000001 -0.000000 -0.000002 0.162357 3.429611 -10.498168 0.209649 1.554735 -15.358565 0.209648 1.554737 -15.358570 0.000000 -0.000000 -0.000002 0.362545 4.206376 -18.344215 0.474610 2.311790 -23.200232 0.474607 2.311792 -23.200240 -0.000001 0.000001 -0.000002 0.689026 4.991708 -26.673262 0.865735 3.066787 -31.521439 0.865732 3.066787 -31.521449 0.000000 -0.000000 0.000001 0.902506 5.377892 -30.995357 1.110593 3.433632 -35.838163 1.110592 3.433628 -35.838156 0.000000 0.000000 0.000000 1.460388 6.141557 17.531878 0.000000 0.000000 0.000000 -2.497079 -6.813973 64.020333 -0.000007 25.388722 0.000018 -18.293287 -16.391170 -13.073735 -1.986177 -5.435657 -3.761594 8.766469 -20.697684 -3.062066 -5.504770 -5.510971 -14.718525 -0.000002 0.000001 0.000000 2.057121 -6.108258 55.293578 5.419359 -4.594512 99.429407 3.163283 -4.411566 71.271248 -0.000001 0.000000 0.000003 2.592850 -6.426546 62.973429 4.946629 -4.648183 93.567315 3.098023 -4.388965 70.420569 0.000000 0.000001 0.000003 2.854989 -6.549357 66.538583 4.919145 -4.649819 93.228209 2.921295 -4.322231 68.093912 -0.000002 -0.000001 -0.000000 1.542110 -5.696820 47.168214 2.898964 -4.313206 67.797352 2.788745 -4.266698 66.323937 -0.000001 0.000001 -0.000000 -24.842744 8.764228 6.615065 27.469035 6.542634 3.483078 -1.019195 2.696380 -12.684408 -1.568502 0.000013 0.000004 0.000000 0.000001 0.000000 -3.891110 -11.547330 -13.771688 26.021224 -8.954857 -2.713497 -16.816100 -9.859199 11.708955 -6.992212 -0.000015 -0.000001 -0.000000 -0.000000 0.000000 
